<svg width="260" height="168" viewBox="0 0 260 168" fill="none" xmlns="http://www.w3.org/2000/svg">
<path d="M179.785 20.175C178.06 20.055 176.375 20 174.725 20C138.89 20 118.485 47.32 111.065 69.305L130.76 88.995C153.38 80.9 180 61.25 180 25.8C180 23.965 179.93 22.095 179.785 20.175ZM132.795 79.25L120.785 67.24C125.875 55.325 140.335 29.965 171.615 28.405C170.565 52.465 154.775 69.785 132.795 79.25ZM138.585 61.465C136.955 59.84 136.955 57.2 138.585 55.575C140.21 53.945 142.85 53.945 144.475 55.575C146.105 57.205 146.105 59.845 144.475 61.47C142.845 63.095 140.21 63.095 138.585 61.465ZM159.205 40.84C155.955 37.59 150.675 37.59 147.425 40.84C144.17 44.095 144.17 49.375 147.425 52.625C150.675 55.88 155.955 55.88 159.21 52.625C162.46 49.375 162.46 44.095 159.205 40.84ZM151.25 48.8C150.11 47.66 150.11 45.81 151.25 44.675C152.385 43.535 154.24 43.535 155.38 44.675C156.515 45.81 156.51 47.66 155.38 48.8C154.24 49.935 152.39 49.935 151.25 48.8Z" fill="#2789E5"/>
<path d="M179.785 20.175C178.06 20.055 176.375 20 174.725 20C138.89 20 118.485 47.32 111.065 69.305L130.76 88.995C153.38 80.9 180 61.25 180 25.8C180 23.965 179.93 22.095 179.785 20.175ZM132.795 79.25L120.785 67.24C125.875 55.325 140.335 29.965 171.615 28.405C170.565 52.465 154.775 69.785 132.795 79.25ZM138.585 61.465C136.955 59.84 136.955 57.2 138.585 55.575C140.21 53.945 142.85 53.945 144.475 55.575C146.105 57.205 146.105 59.845 144.475 61.47C142.845 63.095 140.21 63.095 138.585 61.465ZM159.205 40.84C155.955 37.59 150.675 37.59 147.425 40.84C144.17 44.095 144.17 49.375 147.425 52.625C150.675 55.88 155.955 55.88 159.21 52.625C162.46 49.375 162.46 44.095 159.205 40.84ZM151.25 48.8C150.11 47.66 150.11 45.81 151.25 44.675C152.385 43.535 154.24 43.535 155.38 44.675C156.515 45.81 156.51 47.66 155.38 48.8C154.24 49.935 152.39 49.935 151.25 48.8Z" fill="#2789E5"/>
<path d="M132.795 79.25L120.785 67.24C125.875 55.325 140.335 29.965 171.615 28.405C170.565 52.465 154.775 69.785 132.795 79.25Z" fill="#2779C7"/>
<path d="M132.795 79.25L120.785 67.24C125.875 55.325 140.335 29.965 171.615 28.405C170.565 52.465 154.775 69.785 132.795 79.25Z" fill="#2779C7"/>
<path d="M147.425 40.84C150.675 37.59 155.955 37.59 159.205 40.84C162.46 44.095 162.46 49.375 159.21 52.625C155.955 55.88 150.675 55.88 147.425 52.625C144.17 49.375 144.17 44.095 147.425 40.84Z" fill="#EBB21E"/>
<path d="M151.25 44.675C150.11 45.81 150.11 47.66 151.25 48.8C152.39 49.935 154.24 49.935 155.38 48.8C156.51 47.66 156.515 45.81 155.38 44.675C154.24 43.535 152.385 43.535 151.25 44.675Z" fill="#EDF6FF"/>
<path d="M138.585 55.575C136.955 57.2 136.955 59.84 138.585 61.465C140.21 63.095 142.845 63.095 144.475 61.47C146.105 59.845 146.105 57.205 144.475 55.575C142.85 53.945 140.21 53.945 138.585 55.575Z" fill="#EDF6FF"/>
<path d="M155.59 85.66C153.31 87.215 151.05 88.62 148.81 89.87C148.03 93.58 146.05 97.545 143.18 100.92C143.175 98.52 142.505 96.1 141.335 93.675C139.27 94.61 137.31 95.415 135.44 96.125C138.195 103.245 135.39 108.505 131.625 113.435C137.025 113.03 142.695 110.385 147.155 105.915C151.98 101.105 155.355 94.155 155.59 85.66Z" fill="#2779C7"/>
<path d="M99.13 56.865C101.52 56.88 103.935 57.54 106.345 58.7C105.45 60.68 104.65 62.65 103.925 64.605C96.805 61.85 91.54 64.65 86.61 68.415C87.02 63.02 89.66 57.35 94.125 52.885C98.945 48.07 105.9 44.685 114.395 44.455C112.85 46.685 111.38 48.955 110.07 51.26C106.395 52.06 102.475 54.03 99.13 56.865Z" fill="#2779C7"/>
<path d="M84.43 97.8L88.205 101.575L109.91 79.96L106.135 76.185L84.43 97.8Z" fill="#EBB21E"/>
<path d="M105.17 105.535L108.945 109.31L124.1 94.04L120.32 90.265L105.17 105.535Z" fill="#EBB21E"/>
<path d="M80 116.225L83.775 120L110.645 93.18L106.865 89.405L80 116.225Z" fill="#EBB21E"/>
<path d="M164 79.9376C167.833 78.7743 170.833 75.8018 172.002 72C173.171 75.8018 176.171 78.7743 180 79.9376C176.171 81.0972 173.171 84.1982 172.002 88C170.833 84.2018 167.833 81.0972 164 79.9376Z" fill="white"/>
<path d="M87 26C89.8782 25.1232 92.1232 22.8738 93.0044 20C93.8856 22.8738 96.1306 25.1232 99 26C96.1306 26.8768 93.8812 29.1262 93.0044 32C92.1232 29.1306 89.8782 26.8812 87 26Z" fill="white"/>
<g filter="url(#filter0_d_18_288)">
<path d="M260 0C251.63 0 244.375 4.70152 240.705 11.6051C238.093 16.5192 233.857 21.0893 229.863 24.9653C226.864 27.8763 225 31.9481 225 36.4583C225 45.3163 232.184 52.5 241.042 52.5H278.958C287.816 52.5 295 45.3163 295 36.4583C295 31.9481 293.136 27.8763 290.137 24.9653C286.143 21.0893 281.907 16.5192 279.295 11.6051C275.625 4.70152 268.37 0 260 0Z" fill="white"/>
<path d="M241.147 11.8397C244.733 5.09278 251.822 0.5 260 0.5C268.178 0.5 275.267 5.09278 278.853 11.8397C281.504 16.8268 285.789 21.4421 289.789 25.3241C292.695 28.1449 294.5 32.0889 294.5 36.4583C294.5 45.0401 287.54 52 278.958 52H241.042C232.46 52 225.5 45.0401 225.5 36.4583C225.5 32.0889 227.305 28.1449 230.211 25.3241C234.211 21.4421 238.496 16.8268 241.147 11.8397Z" stroke="#EAEAEA"/>
</g>
<g filter="url(#filter1_d_18_288)">
<path d="M0 48C-16.7528 48 -30.8997 58.9862 -35.7008 74.1396C-37.3817 79.4449 -41.4507 83.9263 -46.267 86.7146C-54.4764 91.4674 -60 100.334 -60 110.5C-60 125.685 -47.685 138 -32.5 138H32.5C47.685 138 60 125.685 60 110.5C60 100.334 54.4764 91.4674 46.267 86.7146C41.4507 83.9263 37.3817 79.4449 35.7008 74.1396C30.8997 58.9862 16.7528 48 0 48Z" fill="white"/>
<path d="M-35.2242 74.2906C-30.4869 59.3386 -16.5281 48.5 0 48.5C16.5281 48.5 30.4869 59.3386 35.2242 74.2906C36.9495 79.7361 41.1134 84.3088 46.0165 87.1474C54.0781 91.8146 59.5 100.52 59.5 110.5C59.5 125.409 47.4089 137.5 32.5 137.5H-32.5C-47.4089 137.5 -59.5 125.409 -59.5 110.5C-59.5 100.52 -54.0781 91.8146 -46.0165 87.1474C-41.1134 84.3088 -36.9495 79.7361 -35.2242 74.2906Z" stroke="#EAEAEA"/>
</g>
<defs>
<filter id="filter0_d_18_288" x="195" y="-30" width="130" height="112.5" filterUnits="userSpaceOnUse" color-interpolation-filters="sRGB">
<feFlood flood-opacity="0" result="BackgroundImageFix"/>
<feColorMatrix in="SourceAlpha" type="matrix" values="0 0 0 0 0 0 0 0 0 0 0 0 0 0 0 0 0 0 127 0" result="hardAlpha"/>
<feOffset/>
<feGaussianBlur stdDeviation="15"/>
<feColorMatrix type="matrix" values="0 0 0 0 0.0589981 0 0 0 0 0.336078 0 0 0 0 0.596193 0 0 0 0.15 0"/>
<feBlend mode="normal" in2="BackgroundImageFix" result="effect1_dropShadow_18_288"/>
<feBlend mode="normal" in="SourceGraphic" in2="effect1_dropShadow_18_288" result="shape"/>
</filter>
<filter id="filter1_d_18_288" x="-90" y="18" width="180" height="150" filterUnits="userSpaceOnUse" color-interpolation-filters="sRGB">
<feFlood flood-opacity="0" result="BackgroundImageFix"/>
<feColorMatrix in="SourceAlpha" type="matrix" values="0 0 0 0 0 0 0 0 0 0 0 0 0 0 0 0 0 0 127 0" result="hardAlpha"/>
<feOffset/>
<feGaussianBlur stdDeviation="15"/>
<feColorMatrix type="matrix" values="0 0 0 0 0.0589981 0 0 0 0 0.336078 0 0 0 0 0.596193 0 0 0 0.15 0"/>
<feBlend mode="normal" in2="BackgroundImageFix" result="effect1_dropShadow_18_288"/>
<feBlend mode="normal" in="SourceGraphic" in2="effect1_dropShadow_18_288" result="shape"/>
</filter>
</defs>
</svg>
